# xmcd
#
# Track frame offsets: 
#        150
#        13645
#        28543
#        40823
#        52828
#        68048
#        82580
#        95610
#        109177
#        123536
#        137395
#        149140
#        162607
#        176761
#        190974
#        204212
#        218953
#        233286
#        245183
#        258023
#
# Disc length: 3608 seconds
#
# Revision: 1
# Processed by: cddbd v1.5.2PL0 Copyright (c) Steve Scherf et al.
# Submitted via: ExactAudioCopy v0.99pb4
#
DISCID=110e1614
DTITLE=Various Artist - 100 Tubes Blues. 1920's to 1930's [CD1)
DYEAR=2010
DGENRE=Blues
TTITLE0=Washboard Sam - Diggin My Potatoes
TTITLE1=Jim Jackson - Jim Jackson's Kansas City Blues
TTITLE2=Memphis Minnie - Dirty Mother For You
TTITLE3=Lonnie Johnson - It Ain't What You Usta Be
TTITLE4=Pine Top Smith - Pine Top's Boogie Woogie
TTITLE5=Bertha "Chippie" Hill - Trouble In Mind
TTITLE6=Robert Wilkens - That's No Way To Get Along
TTITLE7=Robert Johnson - Sweet Home Chicago
TTITLE8=Kokomo Arnold - Milk Cow Blues
TTITLE9=Leroy Carr - How Long-How Long Blues
TTITLE10=Furry Lewis - Billy Lyons And Stack O'Lee
TTITLE11=Skip James - Devil Got My Woman
TTITLE12=Sleepy John Estes - Down South Blues
TTITLE13=Bessie Smith - The St. Louis Blues
TTITLE14=Roosevelt Sykes - Night Time Is The Right Time
TTITLE15=Charlie Picket - Down The Highway
TTITLE16=Buddy Moss - Undertaker Blues
TTITLE17=Red Nelson - Crying Mother Blues
TTITLE18=Leroy's Buddy - Tired Of Your Line Of Jive
TTITLE19=Joe Turner - Roll 'Em, Pete
EXTD=YEAR: 1930
EXTT0=
EXTT1=
EXTT2=
EXTT3=
EXTT4=
EXTT5=
EXTT6=
EXTT7=
EXTT8=
EXTT9=
EXTT10=
EXTT11=
EXTT12=
EXTT13=
EXTT14=
EXTT15=
EXTT16=
EXTT17=
EXTT18=
EXTT19=
PLAYORDER=
